<svg width="41" height="41" viewBox="0 0 41 41" fill="none" xmlns="http://www.w3.org/2000/svg">
<path d="M31.6755 15.8545C31.6817 12.2773 30.475 8.80348 28.2523 5.99945C26.0296 3.19542 22.9219 1.22656 19.4359 0.413871C15.9499 -0.39882 12.2912 -0.00740704 9.05634 1.52429C5.82148 3.056 3.20125 5.63764 1.62284 8.84832C0.0444359 12.059 -0.399041 15.7093 0.364713 19.2042C1.12847 22.699 3.0544 25.8323 5.82852 28.093C8.60264 30.3538 12.0613 31.6087 15.6406 31.6532C19.22 31.6978 22.7088 30.5293 25.5384 28.3382L38.2086 41L41 38.2105L28.3298 25.5487C30.4907 22.7779 31.6677 19.3674 31.6755 15.8545V15.8545ZM15.8378 27.7249C13.4884 27.7249 11.1919 27.0287 9.23851 25.7244C7.28513 24.42 5.76266 22.5661 4.86362 20.3971C3.96458 18.2281 3.72935 15.8413 4.18767 13.5387C4.646 11.2361 5.7773 9.12095 7.43851 7.46084C9.09973 5.80073 11.2162 4.67018 13.5204 4.21216C15.8246 3.75414 18.2129 3.98921 20.3834 4.88765C22.5539 5.7861 24.409 7.30756 25.7142 9.25964C27.0194 11.2117 27.7161 13.5067 27.7161 15.8545C27.7161 19.0027 26.4646 22.022 24.237 24.2481C22.0094 26.4743 18.9881 27.7249 15.8378 27.7249Z" fill="#47516F"/>
</svg>
