<svg width="41" height="41" viewBox="0 0 41 41" fill="none" xmlns="http://www.w3.org/2000/svg">
<path fill-rule="evenodd" clip-rule="evenodd" d="M16.7403 24.2437C19.8595 27.3558 23.8596 29.4339 28.1989 30.1966C32.5382 30.9592 37.0069 30.3696 41 28.5074C39.5507 31.6512 37.3636 34.3983 34.6247 36.5149C31.8859 38.6316 28.6764 40.0551 25.2693 40.6645C21.8622 41.2738 18.3584 41.0509 15.0559 40.0147C11.7535 38.9785 8.75017 37.1597 6.3015 34.7131C3.85283 32.2664 2.03129 29.2643 0.991861 25.9622C-0.0475677 22.6601 -0.274121 19.1557 0.331479 15.7472C0.937079 12.3387 2.35691 9.12692 4.47016 6.38521C6.58341 3.6435 9.32754 1.45297 12.4691 0C10.6067 3.99084 10.0177 8.45832 10.7818 12.7957C11.5459 17.133 13.6263 21.13 16.7403 24.2437V24.2437Z" fill="#BFBFBF"/>
</svg>
