<svg width="130" height="130" viewBox="0 0 130 130" fill="none" xmlns="http://www.w3.org/2000/svg">
<path fill-rule="evenodd" clip-rule="evenodd" d="M62.6341 1.12847C61.6088 2.22875 61.543 2.96887 61.543 13.3648C61.543 23.7485 61.6115 24.5164 62.6523 25.8398C63.9849 27.5347 65.9361 27.6733 67.4297 26.1797C68.4336 25.1757 68.5 24.396 68.5 13.6035C68.5 2.811 68.4336 2.03127 67.4297 1.02732C66.027 -0.375324 63.9951 -0.332511 62.6341 1.12847ZM111.553 14.1338C109.577 14.9901 96.5962 28.1506 96.083 29.8182C95.6335 31.2776 96.8617 33.4294 98.4275 33.9266C99.0098 34.1112 100.16 33.9052 100.984 33.469C103.103 32.3468 115.434 19.7744 116.058 18.0993C117.139 15.1972 114.487 12.8623 111.553 14.1338ZM14.4679 14.9061C13.145 17.3785 13.7278 18.2813 21.8478 26.3365C26.2114 30.6653 30.1523 34.207 30.6056 34.207C31.0589 34.207 32.0644 33.7077 32.8399 33.0976C35.5237 30.9864 34.9462 29.9081 26.6481 21.5383C19.5503 14.38 18.9124 13.8711 17.034 13.8711C15.5923 13.8711 14.865 14.1643 14.4679 14.9061ZM59.1348 34.7513C44.1456 37.7396 33.3418 51.849 34.4491 66.9917C35.3487 79.2982 43.4488 89.89 55.0446 93.9224C73.8933 100.478 94.0879 87.2747 95.6206 67.3942C97.012 49.3573 82.5393 33.94 64.5216 34.2659C62.7364 34.298 60.3121 34.5163 59.1348 34.7513ZM72.3569 42.2247C85.8524 46.3931 92.7008 62.1176 86.6086 74.9463C81.5947 85.5039 70.3142 90.8795 59.2311 87.9929C54.8257 86.8455 52.1092 85.3128 48.6741 82.0361C35.3085 69.2876 40.6719 47.6095 58.5996 41.9154C61.931 40.8574 68.4005 41.003 72.3569 42.2247ZM1.07031 62.5703C-0.423308 64.0639 -0.284702 66.0151 1.41014 67.3476C2.73358 68.3885 3.50153 68.457 13.8852 68.457C24.2811 68.457 25.0212 68.3912 26.1215 67.3658C27.5825 66.0049 27.6253 63.9729 26.2227 62.5703C25.2187 61.5663 24.439 61.5 13.6465 61.5C2.85399 61.5 2.07427 61.5663 1.07031 62.5703ZM103.82 62.5703C102.327 64.0639 102.465 66.0151 104.16 67.3476C105.484 68.3885 106.252 68.457 116.635 68.457C127.031 68.457 127.771 68.3912 128.872 67.3658C130.332 66.0049 130.375 63.9729 128.973 62.5703C127.969 61.5663 127.189 61.5 116.396 61.5C105.604 61.5 104.824 61.5663 103.82 62.5703ZM21.593 103.382C14.9346 110 13.9141 111.24 13.9141 112.709C13.9141 113.641 14.2924 114.782 14.7548 115.245C15.2177 115.708 16.3587 116.086 17.2909 116.086C18.7604 116.086 19.9999 115.065 26.6176 108.407C34.7691 100.206 35.4188 99.0594 33.1797 96.8203C30.9406 94.5812 29.7938 95.2309 21.593 103.382ZM96.9023 97.1601C96.2923 97.9356 95.793 98.9411 95.793 99.3944C95.793 99.8477 99.3346 103.789 103.664 108.152C111.719 116.272 112.621 116.855 115.094 115.532C115.836 115.135 116.129 114.408 116.129 112.966C116.129 111.088 115.62 110.45 108.462 103.352C100.092 95.0537 99.0135 94.4763 96.9023 97.1601ZM62.6341 103.878C61.6088 104.979 61.543 105.719 61.543 116.115C61.543 126.498 61.6115 127.266 62.6523 128.59C63.9849 130.285 65.9361 130.423 67.4297 128.93C68.4336 127.926 68.5 127.146 68.5 116.353C68.5 105.561 68.4336 104.781 67.4297 103.777C66.027 102.375 63.9951 102.417 62.6341 103.878Z" fill="#FCC419"/>
</svg>
